<?xml version="1.0" encoding="UTF-8"?>
<svg xmlns="http://www.w3.org/2000/svg" version="1.1" viewBox="0 0 200 200">
  <defs>
    <style>
      .cls-1 {
        fill: #ff0;
      }

      .cls-2 {
        fill: #29abe2;
      }

      .cls-3 {
        fill: #e50012;
      }
    </style>
  </defs>
  <!-- Generator: Adobe Illustrator 28.7.2, SVG Export Plug-In . SVG Version: 1.2.0 Build 154)  -->
  <g>
    <g id="SKY">
      <g>
        <path class="cls-2" d="M61.33,64.59c-5.79,3.18-9.54,4.2-11.53,4.71-1.36-2.27-3.01-4.49-5.79-6.76,6.36-1.02,15.9-5.17,21.69-10.22-1.25-1.48-2.78-3.12-5.96-5.9-.74.68-3.18,3.18-7.49,6.13-1.14-1.48-2.78-3.46-6.3-5.68,10.62-5.62,17.32-17.03,19.19-21.63l7.89,1.99c.79.23,1.42.4,1.42.96,0,.62-.62.79-1.87,1.02-.51.91-.68,1.25-1.25,2.27h14.31l3.86,3.29c-4.14,7.27-8.01,13.17-14.42,19.65h20.44v24.19h-8.74v-1.82h-16.75v1.82h-8.69v-14.02ZM66.5,38.75c-.79.96-.91,1.08-1.19,1.42,1.99,1.59,4.66,4.2,6.42,6.19,3.46-3.75,4.54-5.79,5.45-7.61h-10.67ZM86.77,69.07v-7.15h-16.75v7.15h16.75Z"/>
        <path class="cls-2" d="M102.77,48.12v-8.18h21.52v-14.02l8.91.45c.34,0,1.08.06,1.08.74,0,.45-.57.74-1.08.91v11.92h21.12v8.18h-20.95c4.94,14.65,15.22,21.18,22.03,24.53-4.77,3.69-5.85,5.51-6.59,6.76-5.73-2.56-14.76-10.45-19.93-20.89-6.98,13.63-16.18,18.28-22.14,21.12-1.48-3.18-3.18-5.17-6.02-7.55,4.77-1.87,18.96-7.27,22.71-23.96h-20.67Z"/>
        <path class="cls-2" d="M43.96,120.67c.51,5.11,4.49,6.19,9.25,6.19,1.53,0,7.61,0,7.61-4.54,0-2.44-1.99-3.46-9.37-5.96-10.28-3.52-16.75-5.68-16.75-14.42,0-3.52,1.59-13.57,17.71-13.57s17.32,10.22,17.94,14.02h-10.5c-.11-1.7-1.19-3.07-1.48-3.41-.62-.79-1.7-2.16-6.25-2.16-5.11,0-6.87,1.93-6.87,3.97,0,3.18,2.56,4.09,8.8,6.19,12.89,4.43,17.26,7.32,17.26,14.19,0,4.6-3.12,14.42-18.23,14.42-7.15,0-18.79-2.67-19.65-14.93h10.5Z"/>
        <path class="cls-2" d="M87.84,120.33v14.02h-10.22v-44.74h10.22v19.02l20.27-19.02h12.66l-18.79,17.49,20.33,27.25h-12.49l-15.39-20.21-6.59,6.19Z"/>
        <path class="cls-2" d="M151.71,134.35h-10.5v-17.49l-16.64-27.25h11.64l10.22,17.71,10.28-17.71h11.64l-16.64,27.25v17.49Z"/>
      </g>
      <rect class="cls-3" width="200" height="200"/>
      <g>
        <path class="cls-1" d="M163.21,137.87c-.41,2.98-1.08,5.88-2.05,8.69-.95,2.88-2.15,5.59-3.61,8.15-1.41,2.6-3.26,4.68-5.56,6.33-2.34,1.64-4.88,2.69-7.67,3.07-1.52.26-2.98.26-4.47.07-1.47-.23-2.89-.6-4.25-1.16-1.3-.58-2.54-1.35-3.69-2.2-1.12-1.03-2.11-2.14-2.91-3.31l6.68-5.84c.55.76,1.25,1.38,2.05,1.83.81.44,1.64.79,2.54.97.87.18,1.76.24,2.64.12.83-.12,1.65-.33,2.49-.59.96-.38,1.81-.95,2.57-1.69.81-.68,1.44-1.51,1.9-2.52,1.11-2.03,2.05-4.17,2.78-6.38.77-2.28,1.4-4.61,1.88-6.94l8.68,1.4Z"/>
        <path class="cls-1" d="M106.43,166.19l-4.93-5.89c.59-.33,1.13-.71,1.58-1.14.48-.53.86-1.09,1.19-1.7.29-.78.44-1.62.51-2.52.03-.88-.07-1.73-.29-2.55-.28-.96-.64-1.89-1.08-2.78-.39-.9-.85-1.75-1.33-2.63l7-3.53c.88,1.48,1.65,3.09,2.3,4.77.58,1.65,1.06,3.32,1.37,5.04.28,1.06.34,2.11.18,3.1-.15,1.04-.47,2-.95,2.98-.6,1.4-1.36,2.66-2.3,3.83-.94,1.17-2.05,2.19-3.25,3.02Z"/>
        <path class="cls-1" d="M137.87,133.71c1.26,1.24,2.46,2.54,3.56,3.95l-5.12,5.36c-1.28-1.33-2.6-2.64-3.93-3.87-1.4-1.22-2.81-2.37-4.29-3.45l5.66-5.42c1.44,1.01,2.83,2.16,4.12,3.42Z"/>
        <path class="cls-1" d="M118.75,128.27c1.84.46,3.42,1.43,4.7,3,1.28,1.51,2.02,3.27,2.2,5.31.09.99.07,1.99-.06,2.98-.17,1.01-.49,1.99-.9,2.95-.68,1.58-1.5,3.09-2.43,4.5-.91,1.35-1.96,2.65-3.11,3.91l-6.84-5.37c.72-.58,1.35-1.21,1.9-1.9.53-.64,1.09-1.35,1.64-2.16.15-.36.29-.78.44-1.2.06-.46.03-.94-.05-1.38-.1-.43-.3-.83-.61-1.17-.28-.36-.63-.59-1.04-.73-.36-.07-.77-.14-1.21-.15-.42-.06-.8,0-1.21.13-3.09.66-6.15,1.49-9.14,2.49-2.98,1.03-5.93,2.2-8.83,3.57l-2.98-8.83c3.26-1.52,6.62-2.82,10.06-3.87,3.46-1.03,6.96-1.79,10.5-2.27,1.14-.16,2.3-.22,3.48-.22,1.17,0,2.35.14,3.49.39Z"/>
        <path class="cls-1" d="M69.07,136.61c-.04.84-.69,1.49-1.49,1.49-.79-.06-1.42-.73-1.41-1.58.04-.83.69-1.5,1.48-1.49.79.03,1.43.74,1.41,1.58Z"/>
        <path class="cls-1" d="M57.86,136.27c-.06.86-.69,1.53-1.47,1.5-.78-.01-1.45-.72-1.42-1.55.02-.84.69-1.51,1.52-1.48.76.02,1.39.73,1.38,1.53Z"/>
        <path class="cls-1" d="M61.5,139.85c-1.66,5.28-1.2,10.23,1.12,11.02,2.33.84,5.55-2.77,7.25-8.07.22-.65.4-1.29.54-1.92l-3.54-.57,3.92-1.71c.36-3.49-.36-6.27-2.04-6.85-2.29-.82-5.53,2.81-7.23,8.1ZM50.34,139.54c-1.71,5.24-1.23,10.22,1.09,11.03,2.31.81,5.57-2.82,7.22-8.08.21-.65.4-1.29.55-1.91l-3.54-.58,3.9-1.69c.37-3.49-.33-6.27-2.01-6.88-2.33-.81-5.54,2.83-7.22,8.11ZM74.67,28.43c2.2,2.12,25.07,20.15,25.07,20.15l-22.84,2.63c-13.67,13.64-20.32,47.03-19.76,72.13-.06-2.31,6.65-2.47,9.17-2.42,7.98-49.39,40.57-76.87,54.3-85.94,3.35-2.23,4.27-2.25,6.74-.11,2.47,2.13,26.1,26.7,26.1,26.7l-27.15-.59c-21.29,9.93-46.04,42.32-52.18,61.93,4.46,2.52,6.29,8.73,6.14,14.06-.19,7.7-10.92,31.31-28.92,30.8-2.7-.07-5.41-1.51-7.17-3.89-.38.11-.82.16-1.26.16-1.11-.05-2.12-.48-2.89-1.37-.76-.8-1.14-1.92-1.11-3.08.05-2.03,1.41-3.7,3.24-4.11.41-7.22,2.9-21.93,8.79-27-9.63-54.01,4.14-82.26,16.65-99.1,3.08-4.11,4.87-3.13,7.06-.97ZM39.92,159.62c0,.86.31,1.7.88,2.37.58.58,1.37.99,2.17,1,1.76.07,3.19-1.38,3.24-3.2.02-.88-.27-1.73-.86-2.36-.58-.64-1.35-1-2.2-1.03-.84-.01-1.64.31-2.25.9-.59.62-.96,1.44-.99,2.32Z"/>
      </g>
    </g>
  </g>
</svg>