<svg xmlns="http://www.w3.org/2000/svg" viewBox="0 0 1024 1024">
  <!-- Pink Background with rounded corners -->
  <rect width="1024" height="1024" rx="80" fill="#E74589"/>

  <!-- Crown shadow (subtle) -->
  <g transform="translate(4, 4)" opacity="0.15">
    <path d="M140 620 L140 520 L240 380 L360 500 L512 260 L664 500 L784 380 L884 520 L884 620 Z" fill="black"/>
    <rect x="140" y="580" width="744" height="50" fill="black"/>
    <circle cx="240" cy="340" r="45" fill="black"/>
    <circle cx="512" cy="220" r="55" fill="black"/>
    <circle cx="784" cy="340" r="45" fill="black"/>
  </g>

  <!-- Crown main body -->
  <path d="M140 620 L140 520 L240 380 L360 500 L512 260 L664 500 L784 380 L884 520 L884 620 Z" fill="#F5D93A"/>

  <!-- Crown bottom band (darker) -->
  <rect x="140" y="580" width="744" height="50" fill="#E5C830"/>

  <!-- Crown balls -->
  <circle cx="240" cy="340" r="45" fill="#F5D93A"/>
  <circle cx="512" cy="220" r="55" fill="#F5D93A"/>
  <circle cx="784" cy="340" r="45" fill="#F5D93A"/>

  <!-- OZA Text -->
  <text x="512" y="820" font-family="Arial Black, Arial, sans-serif" font-size="200" font-weight="900" fill="white" text-anchor="middle">OZA</text>
</svg>
