<?xml version="1.0" encoding="UTF-8"?>
<svg xmlns="http://www.w3.org/2000/svg" version="1.1" viewBox="0 0 960 500">
  <defs>
    <style>
      .cls-1 {
        fill: #03004c;
      }

      .cls-2 {
        fill: #fccf00;
      }

      .cls-3 {
        fill: #e50012;
      }
    </style>
  </defs>
  <!-- Generator: Adobe Illustrator 28.7.2, SVG Export Plug-In . SVG Version: 1.2.0 Build 154)  -->
  <g>
    <g id="_レイヤー_1" data-name="レイヤー_1">
      <path class="cls-1" d="M194.39,150.47c80.01,0,120.01,47.39,120.01,142.16s-40.75,142.16-122.23,142.16-122.23-48.46-122.23-145.39,41.48-138.93,124.44-138.93ZM192.18,172.42c-15.04,0-25.21,8.28-30.51,24.87-5.31,16.58-7.95,48.37-7.95,95.35s2.65,78.77,7.95,95.35c5.3,16.58,15.47,24.86,30.51,24.86s25.2-8.28,30.51-24.86c5.3-16.58,7.95-48.36,7.95-95.35s-2.65-78.6-7.95-95.24c-5.3-16.65-15.47-24.97-30.51-24.97Z"/>
      <g>
        <path class="cls-2" d="M107.88,103.22c2.53,0,4.78-1.2,6.23-3.04,11.71,11.38,19.59,26.94,21.03,41.18h-4.23v7.2h1.3c19.61-7.19,40.6-9.75,60.43-9.75s38.97,2.54,57.73,9.64v-7.09h-3.42c1.4-13.76,8.8-28.76,19.87-40.02,1.44,1.6,3.53,2.6,5.86,2.6,4.37,0,7.91-3.55,7.91-7.91s-3.54-7.92-7.91-7.92-7.92,3.54-7.92,7.92c0,1.58.47,3.04,1.27,4.29-7.18,4.16-16.22,7.6-23.5,4.49-8.02-3.42-8.42-14.17-8.64-23.2.21.02.42.03.65.03,4.37,0,7.92-3.54,7.92-7.91s-3.55-7.92-7.92-7.92-7.92,3.55-7.92,7.92c0,3.43,2.18,6.34,5.24,7.44-3.38,8.64-11.96,18.06-22.26,16.35-11.74-1.97-14.68-22.33-17.14-34.8,3.5-.82,6.1-3.95,6.1-7.7,0-4.37-3.54-7.91-7.91-7.91s-7.92,3.54-7.92,7.91c0,4.03,3.01,7.35,6.9,7.85-2.47,12.48-5.42,32.71-17.12,34.66-11.04,1.83-20.08-9.11-22.89-18.17,3.7-.67,6.5-3.89,6.5-7.79,0-4.36-3.55-7.91-7.92-7.91s-7.92,3.54-7.92,7.91,3.54,7.92,7.92,7.92c.02,0,.05,0,.08,0-.25,9.4-.03,21.65-8.69,25.34-7.78,3.32-17.58-.82-24.95-5.36.74-1.21,1.17-2.63,1.17-4.15,0-4.37-3.54-7.91-7.91-7.91s-7.92,3.54-7.92,7.91,3.54,7.92,7.92,7.92Z"/>
        <path class="cls-2" d="M107.88,103.22c2.53,0,4.78-1.2,6.23-3.04,11.71,11.38,19.59,26.94,21.03,41.18h-4.23v7.2h1.3c19.61-7.19,40.6-9.75,60.43-9.75s38.97,2.54,57.73,9.64v-7.09h-3.42c1.4-13.76,8.8-28.76,19.87-40.02,1.44,1.6,3.53,2.6,5.86,2.6,4.37,0,7.91-3.55,7.91-7.91s-3.54-7.92-7.91-7.92-7.92,3.54-7.92,7.92c0,1.58.47,3.04,1.27,4.29-7.18,4.16-16.22,7.6-23.5,4.49-8.02-3.42-8.42-14.17-8.64-23.2.21.02.42.03.65.03,4.37,0,7.92-3.54,7.92-7.91s-3.55-7.92-7.92-7.92-7.92,3.55-7.92,7.92c0,3.43,2.18,6.34,5.24,7.44-3.38,8.64-11.96,18.06-22.26,16.35-11.74-1.97-14.68-22.33-17.14-34.8,3.5-.82,6.1-3.95,6.1-7.7,0-4.37-3.54-7.91-7.91-7.91s-7.92,3.54-7.92,7.91c0,4.03,3.01,7.35,6.9,7.85-2.47,12.48-5.42,32.71-17.12,34.66-11.04,1.83-20.08-9.11-22.89-18.17,3.7-.67,6.5-3.89,6.5-7.79,0-4.36-3.55-7.91-7.92-7.91s-7.92,3.54-7.92,7.91,3.54,7.92,7.92,7.92c.02,0,.05,0,.08,0-.25,9.4-.03,21.65-8.69,25.34-7.78,3.32-17.58-.82-24.95-5.36.74-1.21,1.17-2.63,1.17-4.15,0-4.37-3.54-7.91-7.91-7.91s-7.92,3.54-7.92,7.91,3.54,7.92,7.92,7.92Z"/>
      </g>
      <path class="cls-1" d="M884.9,413.5h-14.44c-12.37,0-14.28-5.78-20.06-18.98-.37-.84-1.2-2.87-2.37-5.76l-59.86-212.35-.02-.03-2.95-10.28c-1.38-6.61-7.57-10.77-13.33-10.77h-.98l-.03-.04h-58.64l-69.52,232.16c-1.44,3.58-2.47,6.11-2.89,7.07-5.78,13.2-7.68,18.98-20.05,18.98h-14.44c-1.65,0-3.3.82-3.3,2.88v9.9c0,2.47.83,3.3,2.89,3.3h91.96c2.06,0,3.3-.82,3.3-3.71v-9.48c0-2.06-1.24-2.88-4.12-2.88h-12.11c-9.07,0-14.03-3.3-14.03-9.07,0-1,.2-2.49.44-4.09l9.24-29.78h82.76l9.08,31.42c.12.94.22,1.8.22,2.44,0,5.77-4.95,9.07-14.02,9.07h-12.12c-2.88,0-4.12.82-4.12,2.88v9.48c0,2.89,1.24,3.71,3.3,3.71h140.61c2.06,0,2.89-.82,2.89-3.3v-9.9c0-2.06-1.65-2.88-3.3-2.88ZM687.45,342.97l35.05-121.82,32.42,121.82h-67.46Z"/>
      <g>
        <path class="cls-1" d="M395.87,155.3v.02c-2.01-.24-3.8-.42-4.87-.42-2.06,0-3.71.83-4.95,4.54l-25.98,74.24c-.82,2.47-.41,2.89.83,3.71l5.36,2.47c1.24.83,2.47,1.23,3.71-.41,6.74-11.01,32.66-43.29,45.28-56.57h69.88l16.36-27.59h-105.62Z"/>
        <path class="cls-1" d="M584.3,347.9l-5.36-2.48c-1.24-.82-2.47-1.23-3.71.41-6.77,11.05-32.89,43.57-45.45,56.74h-86.94l132.09-222.31v-5.42s-.01-9.11-.01-9.11c0-5.75-4.67-10.43-10.43-10.43h-27.35l-3.13-.02h-3.1l-163.01,274.85.61.02h182.04v-.06c1.5.16,2.79.27,3.63.27,2.06,0,3.71-.82,4.95-4.53l25.98-74.23c.82-2.47.41-2.88-.83-3.71Z"/>
        <path class="cls-3" d="M501.49,155.3l-16.36,27.59h-.01l-130.48,219.69v8.01s0,9.12,0,9.12c0,5.76,4.67,10.43,10.43,10.43h2.84s163.01-274.84,163.01-274.84h-29.42Z"/>
      </g>
      <g>
        <path d="M458.75,87.52h-14.98l.22,22.89c.11,7.74-4.74,7.74-15.37,7.74-.27-1.74-1.04-4.52-1.74-6.27,1.42.05,3,.05,4.41.05,5.18,0,5.99,0,5.88-1.63l-.16-17.6c-5.39,7.08-12.97,13.68-20.6,18.2-1.14-1.69-3.05-3.81-4.85-5.18,8.01-4.25,16.02-11.06,21.47-18.2h-18.8v-6.48h22.61l-.11-10.95,8.39.33c-.05.6-.44,1.04-1.53,1.14l.11,9.48h15.04v6.48Z"/>
        <path d="M463.65,89.86h45.5v6.87h-43.21c-.33.54-1.09.93-1.85,1.04l-.44-7.9Z"/>
        <path d="M561.61,88.56h-10.73v2.07c0,11.39-3.87,21.31-17.16,27.63-1.25-1.42-3.32-3.49-5.01-4.74,12.53-5.61,15.2-13.9,15.2-22.83v-2.12h-13.35v11.99h-6.81v-11.99h-9.43v-6.54h9.43v-11.23l8.45.54c-.05.54-.54,1.2-1.63,1.36v9.32h13.35v-11.82l8.55.49c-.05.54-.54,1.04-1.58,1.25v10.08h10.73v6.54ZM553.93,72.05c2.07,1.85,4.2,4.41,5.56,6.54l-2.89,2.34c-1.31-2.12-3.54-4.96-5.45-6.76l2.78-2.12ZM559.49,67.41c2.23,2.07,4.3,4.41,5.72,6.65l-2.78,2.23c-1.36-2.07-3.54-4.79-5.67-6.7l2.72-2.18Z"/>
      </g>
    </g>
  </g>
</svg>